Coordinates
version=1
nRows=12
nColumns=32
inDegrees=yes

Units are S.I. units (second, meters, Newtons, ...)
If the header above contains a line with 'inDegrees', this indicates whether rotational values are in degrees (yes) or radians (no).

endheader
time	pelvis_tilt	pelvis_list	pelvis_rotation	pelvis_tx	pelvis_ty	pelvis_tz	hip_flexion_r	hip_adduction_r	hip_rotation_r	knee_angle_r	knee_adduction_r	med_cond_adduction_r	lat_cond_adduction_r	patella_r_constrained_knee_angle	ankle_angle_r	subtalar_angle_r	mtp_angle_r	hip_flexion_l	hip_adduction_l	hip_rotation_l	knee_angle_l	knee_adduction_l	med_cond_adduction_l	lat_cond_adduction_l	patella_l_constrained_knee_angle	ankle_angle_l	subtalar_angle_l	mtp_angle_l	lumbar_extension	lumbar_bending	lumbar_rotation
      1.35416667	     14.10366034	    -10.83191851	    -97.71819266	      0.47069857	      1.14450218	     -0.00360051	     -8.23523227	    -14.97339873	      7.74677153	     -5.65589603	      0.00000000	     -0.00000000	      0.00000000	     -0.09871401	     -8.52180641	     -2.26841738	     -0.00000000	    -10.66388051	     14.39425989	      0.85650917	    -25.81662749	     -0.00000000	     -0.00000000	      0.00000000	     -0.45058515	    -23.46626449	     -8.02428396	      0.00000000	     -0.00000000	     -0.00000000	     -0.00000000
      1.35833333	     14.58338575	    -10.64742240	    -97.56998965	      0.47115840	      1.14488650	      0.00265112	     -8.22707814	    -15.62466923	      5.68949108	     -5.87901866	     -0.00000000	     -0.00000000	      0.00000000	     -0.10260823	     -7.97042631	      0.08968811	      0.00000000	     -9.80695984	     14.84328414	      1.02223161	    -25.46883844	     -0.00000000	     -0.00000000	      0.00000000	     -0.44451509	    -23.40666418	     -8.41111429	      0.00000000	     -0.00000000	     -0.00000000	     -0.00000000
      1.36250000	     15.01613751	    -10.45637797	    -97.40677644	      0.47166880	      1.14511444	      0.00880005	     -8.20268815	    -16.22524759	      3.64726448	     -6.16001703	      0.00000000	      0.00000000	     -0.00000000	     -0.10751258	     -7.41871023	      2.40069814	      0.00000000	     -8.96346291	     15.24747747	      1.20718568	    -25.08260929	      0.00000000	     -0.00000000	      0.00000000	     -0.43777412	    -23.40477343	     -8.85141132	     -0.00000000	     -0.00000000	     -0.00000000	     -0.00000000
      1.36666667	     15.42216968	    -10.27355901	    -97.21205589	      0.47227014	      1.14528037	      0.01507486	     -8.25579098	    -16.80059488	      1.58780102	     -6.34389440	      0.00000000	      0.00000000	     -0.00000000	     -0.11072184	     -7.01536883	      4.58279868	     -0.00000000	     -8.15696442	     15.63197148	      1.47607848	    -24.64681320	     -0.00000000	     -0.00000000	      0.00000000	     -0.43016804	    -23.66407466	     -9.40226233	     -0.00000000	     -0.00000000	     -0.00000000	     -0.00000000
      1.37083333	     15.72821151	    -10.07214033	    -96.97791176	      0.47291787	      1.14532130	      0.02143065	     -8.31763406	    -17.26562188	     -0.55015699	     -6.58320380	     -0.00000000	      0.00000000	     -0.00000000	     -0.11489858	     -6.56006381	      6.80202311	     -0.00000000	     -7.34745137	     15.89994135	      1.74615138	    -24.24202340	     -0.00000000	      0.00000000	     -0.00000000	     -0.42310313	    -23.54802544	     -9.72388623	      0.00000000	     -0.00000000	     -0.00000000	     -0.00000000
      1.37500000	     16.07326076	     -9.84706510	    -96.83909493	      0.47333937	      1.14517206	      0.02763706	     -8.32137134	    -17.75833338	     -2.48629379	     -6.78851358	      0.00000000	      0.00000000	     -0.00000000	     -0.11848191	     -6.23448773	      8.74263584	      0.00000000	     -6.48429983	     16.20146350	      1.87774205	    -23.81968337	     -0.00000000	      0.00000000	     -0.00000000	     -0.41573190	    -23.48286572	    -10.09202849	     -0.00000000	     -0.00000000	     -0.00000000	     -0.00000000
      1.37916667	     16.31942392	     -9.68467285	    -96.61275429	      0.47391365	      1.14503531	      0.03396334	     -8.43691062	    -18.16632458	     -4.54982154	     -7.03200787	      0.00000000	      0.00000000	     -0.00000000	     -0.12273169	     -5.91568884	     10.80847986	     -0.00000000	     -5.73432275	     16.40234315	      2.09458539	    -23.37648827	     -0.00000000	      0.00000000	     -0.00000000	     -0.40799669	    -23.43664732	    -10.46410672	     -0.00000000	     -0.00000000	     -0.00000000	     -0.00000000
      1.38333333	     16.55779865	     -9.51613205	    -96.43428486	      0.47449327	      1.14475171	      0.04032688	     -8.52923801	    -18.56896449	     -6.53688640	     -7.27910896	     -0.00000000	     -0.00000000	      0.00000000	     -0.12704442	     -5.65283504	     12.73122672	      0.00000000	     -4.97746634	     16.60803522	      2.31719130	    -22.91494172	     -0.00000000	     -0.00000000	      0.00000000	     -0.39994118	    -23.41974113	    -10.80500439	      0.00000000	     -0.00000000	     -0.00000000	     -0.00000000
      1.38750000	     16.74541660	     -9.36860867	    -96.25316198	      0.47495662	      1.14430017	      0.04663300	     -8.66874702	    -18.91590075	     -8.51633350	     -7.55493182	     -0.00000000	      0.00000000	     -0.00000000	     -0.13185843	     -5.26378699	     14.62837671	     -0.00000000	     -4.22326382	     16.73021373	      2.36841817	    -22.49535367	     -0.00000000	      0.00000000	     -0.00000000	     -0.39261799	    -23.20899247	    -10.95874317	      0.00000000	     -0.00000000	     -0.00000000	     -0.00000000
      1.39166667	     16.83865983	     -9.18441550	    -96.06309923	      0.47538234	      1.14388728	      0.05292432	     -8.78314109	    -19.13023772	    -10.46115914	     -7.74820789	      0.00000000	     -0.00000000	      0.00000000	     -0.13523174	     -5.24513768	     16.15098167	     -0.00000000	     -3.46841606	     16.75661856	      2.56559695	    -21.99755686	      0.00000000	     -0.00000000	      0.00000000	     -0.38392979	    -23.19725961	    -11.16281895	      0.00000000	     -0.00000000	     -0.00000000	     -0.00000000
      1.39583333	     16.84222865	     -9.05411978	    -95.86534404	      0.47562656	      1.14335166	      0.05922017	     -8.97143440	    -19.24512401	    -12.39863738	     -7.98718324	      0.00000000	      0.00000000	     -0.00000000	     -0.13940265	     -5.14835913	     17.53453576	     -0.00000000	     -2.76938619	     16.67225202	      2.66251725	    -21.53465678	      0.00000000	      0.00000000	     -0.00000000	     -0.37585066	    -23.13276589	    -11.28676864	      0.00000000	     -0.00000000	     -0.00000000	     -0.00000000
      1.40000000	     16.80459737	     -8.83986039	    -95.69585725	      0.47604926	      1.14267006	      0.06548500	     -9.04512397	    -19.29958275	    -14.10450122	     -8.25437120	     -0.00000000	     -0.00000000	      0.00000000	     -0.14406596	     -5.14523216	     18.39303292	     -0.00000000	     -2.00363727	     16.57080878	      2.87052354	    -21.03569303	     -0.00000000	     -0.00000000	      0.00000000	     -0.36714210	    -23.08604955	    -11.56592983	     -0.00000000	     -0.00000000	     -0.00000000	     -0.00000000
